PathFileType	4	(X/Y/Z)	C:/Users/opensim2020/Desktop/walking_exp_matlab/subject06_walking15_straight_02.trc																																																																																																																																											
DataRate	CameraRate	NumFrames	NumMarkers	Units	OrigDataRate	OrigDataStartFrame	OrigNumFrames																																																																																																																																							
100	100	9	47	mm	100	1655	218																																																																																																																																							
Frame#	Time	LFHD			RFHD			LBHD			RBHD			C7			T10			CLAV			STRN			RBAK			LSHO			LUPA			LELB			LFRM			LWRA			LWRB			LFIN			RSHO			RUPA			RELB			RFRM			RWRA			RWRB			RFIN			LASI			RASI			LPSI			RPSI			LTHI			LKNE			LTIB			LANK			LHEE			LTOE			RTHI			RKNE			RTIB			RANK			RHEE			RTOE			*39			*40			*41			*42			*43			*44			*45			*46		
		X1	Y1	Z1	X2	Y2	Z2	X3	Y3	Z3	X4	Y4	Z4	X5	Y5	Z5	X6	Y6	Z6	X7	Y7	Z7	X8	Y8	Z8	X9	Y9	Z9	X10	Y10	Z10	X11	Y11	Z11	X12	Y12	Z12	X13	Y13	Z13	X14	Y14	Z14	X15	Y15	Z15	X16	Y16	Z16	X17	Y17	Z17	X18	Y18	Z18	X19	Y19	Z19	X20	Y20	Z20	X21	Y21	Z21	X22	Y22	Z22	X23	Y23	Z23	X24	Y24	Z24	X25	Y25	Z25	X26	Y26	Z26	X27	Y27	Z27	X28	Y28	Z28	X29	Y29	Z29	X30	Y30	Z30	X31	Y31	Z31	X32	Y32	Z32	X33	Y33	Z33	X34	Y34	Z34	X35	Y35	Z35	X36	Y36	Z36	X37	Y37	Z37	X38	Y38	Z38	X39	Y39	Z39	X40	Y40	Z40	X41	Y41	Z41	X42	Y42	Z42	X43	Y43	Z43	X44	Y44	Z44	X45	Y45	Z45	X46	Y46	Z46	X47	Y47	Z47
																																																																																																																																														
164	1.63	318.08145	1662.12781	934.64752	329.97415	1656.92627	1065.98523	185.67635	1606.86523	948.80511	199.39688	1607.05615	1077.87708	191.79007	1449.37292	1005.27435	164.59756	1119.48682	1016.48773	304.15326	1374.80933	1005.185	346.68387	1200.34778	1004.10358	122.96367	1278.68774	1086.8772	246.12234	1402.54907	843.08551	224.73773	1198.56494	777.67804	205.79747	1087.31055	772.02411	210.72887	937.92719	749.28455	261.88446	816.33698	783.80859	196.2901	819.28662	755.55054	224.1377	733.14832	750.80481	257.14169	1408.82227	1166.56567	220.44598	1213.8407	1261.09656	237.45294	1094.15979	1275.96094	292.40753	988.85638	1285.24902	400.18198	890.08038	1238.89832	353.16122	866.39777	1279.73425	417.5018	813.34735	1276.27405	349.36951	964.88739	916.37531	336.63705	968.77936	1134.43567	189.43497	984.19873	933.3847	186.81561	990.04584	1102.02612	366.12988	658.00714	849.21985	422.8522	505.89914	875.43109	343.17923	266.05188	881.75909	306.3667	97.20002	919.1178	269.77533	87.44001	969.82666	438.79156	43.07462	906.3175	276.159	629.41132	1170.78662	271.41043	503.77954	1144.34985	183.35327	249.33493	1135.58972	132.52103	70.37614	1086.61755	86.74662	49.58409	1045.53442	282.82974	30.69161	1075.00452	223.3652	1702.5835	1001.20789	NaN	NaN	NaN	NaN	NaN	NaN	NaN	NaN	NaN	NaN	NaN	NaN	NaN	NaN	NaN	NaN	NaN	NaN	NaN	NaN	NaN
165	1.64	328.24094	1661.08948	934.07422	340.31979	1655.98804	1065.35681	196.04402	1605.55627	948.57172	209.72289	1606.17737	1077.52966	202.1702	1448.13135	1005.15747	174.34956	1118.54053	1016.6886	314.3446	1373.69714	1005.18402	356.66959	1199.23926	1004.50177	132.901	1277.98767	1087.09216	256.21603	1401.30444	843.05078	231.40233	1197.97046	777.44214	210.59793	1087.07642	771.62231	213.32123	937.58728	748.8183	262.45288	815.21771	783.50293	197.41592	819.31128	754.41943	224.28671	732.59937	750.05225	267.41699	1408.11536	1166.51038	231.45226	1213.2843	1261.63379	249.03105	1093.88867	1276.6604	306.13065	989.94348	1285.53711	416.17575	894.15778	1238.40161	369.92868	869.18658	1279.27527	435.61105	817.75446	1275.41711	359.15921	964.10779	916.81531	345.96289	967.55731	1134.703	199.25647	983.23444	932.99835	196.14423	989.02136	1101.6925	376.01642	657.11707	849.12195	432.50177	505.11011	875.53918	365.60669	260.72708	881.60052	339.86227	89.77258	918.90625	303.92749	78.01503	969.72552	475.39206	43.34945	905.61096	283.02945	628.36627	1170.55481	276.67798	502.74155	1144.47083	185.70503	249.22029	1135.52356	132.9805	70.83373	1086.7135	86.10287	51.0148	1045.44434	283.11063	30.5632	1075.07104	233.58774	1701.505	1000.61292	NaN	NaN	NaN	NaN	NaN	NaN	NaN	NaN	NaN	NaN	NaN	NaN	NaN	NaN	NaN	NaN	NaN	NaN	NaN	NaN	NaN
166	1.65	338.54086	1659.73804	933.52545	350.57178	1654.94336	1064.72656	206.3327	1604.28308	948.19147	220.11403	1605.02222	1077.12659	212.53297	1447.24829	1005.00104	184.13014	1117.53906	1016.59351	324.55121	1372.49292	1005.09558	366.61218	1198.00842	1004.83313	142.94974	1277.20032	1087.33691	266.01624	1399.91785	843.00586	238.07622	1197.40234	777.15802	215.57076	1086.85046	771.1908	215.8868	937.3761	747.88422	264.30637	814.49664	782.55762	199.00026	819.05078	753.87726	225.12083	732.21881	749.2207	277.73691	1407.28955	1166.37402	242.22658	1212.55444	1261.89636	260.63718	1093.52063	1277.34375	319.83459	990.91425	1285.81934	431.91864	898.02405	1237.81128	386.45377	871.67175	1278.68152	453.46722	822.09869	1274.44873	369.02609	963.12451	917.09967	355.1441	966.28137	1134.91895	209.06145	982.21881	932.58759	205.57677	987.92816	1101.32947	385.07895	655.62909	849.06647	441.62875	503.86752	875.51251	387.84787	255.76227	881.37714	373.24289	83.44991	918.61011	340.72	67.96901	971.40082	511.56335	44.52237	905.27466	289.82697	627.45111	1170.49084	281.94211	501.84274	1144.67786	187.90659	249.164	1135.47949	133.33931	71.33855	1086.60449	86.06707	51.97081	1045.14148	282.91635	30.51073	1074.92639	243.87662	1700.37207	1000.07758	NaN	NaN	NaN	NaN	NaN	NaN	NaN	NaN	NaN	NaN	NaN	NaN	NaN	NaN	NaN	NaN	NaN	NaN	NaN	NaN	NaN
167	1.66	348.79947	1658.4447	932.9292	360.92197	1653.85388	1064.18225	216.61459	1602.89014	947.66998	230.43616	1603.8833	1076.62695	222.85649	1445.9707	1004.9057	193.97191	1116.32996	1016.48926	334.78061	1371.16443	1004.93536	376.51797	1196.68372	1005.11151	152.86679	1276.34888	1087.37012	275.84769	1398.51282	842.89844	244.99269	1196.80078	776.87903	220.72964	1086.67456	770.75763	219.01149	937.15735	747.33728	265.85162	813.67084	781.92877	200.91515	818.90594	753.21698	226.19887	731.87201	748.5271	288.05627	1406.36169	1166.15405	253.38374	1211.84717	1262.47791	272.30109	1092.98083	1277.8905	333.47208	991.74274	1285.9458	447.56699	901.7395	1237.20166	402.78687	874.22559	1278.27063	470.83374	826.0285	1273.46216	378.81015	962.06989	917.54156	364.58328	965.01086	1135.07422	219.1759	981.02875	932.16742	215.11433	986.70544	1100.91931	393.40192	653.68347	849.00665	450.18466	502.12262	875.45959	409.84753	251.18593	881.16266	406.63907	78.11588	918.61218	374.83817	60.97195	971.36719	546.84259	46.49289	905.59229	296.65192	626.59143	1170.44238	286.87512	500.87283	1144.86511	190.0761	249.18604	1135.44153	133.74104	71.94852	1086.49316	86.93496	52.41693	1044.91052	283.09039	30.36141	1074.87659	254.13542	1699.0614	999.41644	NaN	NaN	NaN	NaN	NaN	NaN	NaN	NaN	NaN	NaN	NaN	NaN	NaN	NaN	NaN	NaN	NaN	NaN	NaN	NaN	NaN
168	1.67	359.01706	1657.02393	932.27216	371.20572	1652.60278	1063.50781	226.78391	1601.51721	947.02875	240.75552	1602.53308	1076.0907	233.10777	1444.91223	1004.72064	203.78043	1115.0791	1016.20984	345.08432	1369.76721	1004.65686	386.50311	1195.28589	1005.22534	163.06052	1275.41418	1087.37659	285.74985	1397.07007	842.71338	252.0957	1196.1449	776.55463	226.00114	1086.4502	770.40967	222.50671	936.79956	746.94104	268.77783	813.19702	780.52124	203.14154	818.79199	752.67517	227.83513	731.58289	747.64801	298.34586	1405.28613	1165.85522	264.14886	1210.87402	1262.46716	284.07916	1092.35315	1278.27563	346.9863	992.42145	1286.03821	462.7973	905.12805	1236.51721	418.80093	876.41327	1277.61877	487.86371	829.80334	1272.44507	388.84985	961.02167	917.82855	373.5376	963.52063	1134.96362	229.22293	979.75641	931.76556	224.62212	985.41498	1100.4884	400.95102	651.31757	848.68073	458.48349	500.0195	875.32654	431.61646	247.0278	880.9895	439.15396	73.99384	918.64154	408.22403	55.24434	971.34503	581.19849	49.59598	906.05884	303.55457	625.84833	1170.53076	292.13736	500.07571	1145.19385	192.07785	249.29959	1135.41931	134.03583	72.68236	1086.35413	87.30809	53.46013	1044.52271	283.13596	30.26755	1074.90125	264.38998	1697.68286	998.7442	NaN	NaN	NaN	NaN	NaN	NaN	NaN	NaN	NaN	NaN	NaN	NaN	NaN	NaN	NaN	NaN	NaN	NaN	NaN	NaN	NaN
169	1.68	369.26984	1655.56165	931.49933	381.5618	1651.30664	1062.86572	237.05582	1599.96313	946.47607	251.12646	1601.11438	1075.49365	243.62361	1443.32739	1004.36603	213.60896	1113.83972	1015.96661	355.38144	1368.30994	1004.31506	396.52298	1193.83899	1005.22058	173.06152	1274.36694	1087.22864	295.70569	1395.63708	842.44757	259.36761	1195.48315	776.1814	231.73178	1086.21887	770.04504	226.20648	936.70636	746.17157	271.81302	812.54767	779.15302	205.76457	818.80084	752.2196	229.86081	731.31909	746.8446	308.6633	1404.13269	1165.45178	275.43945	1209.87659	1262.66028	295.90106	1091.63916	1278.58752	360.62238	992.98444	1285.84631	477.84708	908.24634	1235.776	434.52289	878.51483	1277.04395	504.49637	833.30927	1271.41699	398.99606	959.92108	917.98853	383.56949	962.5611	1135.19482	239.42468	978.32037	931.33411	234.40733	984.01074	1100.0957	408.09753	648.69617	848.11646	466.40289	497.63156	875.30414	452.70639	243.35806	880.94293	470.77338	71.08858	918.86249	440.59781	51.19343	971.44159	614.27899	53.63238	907.06799	310.62976	625.14203	1170.68518	297.34076	499.34555	1145.56348	193.88359	249.45847	1135.49915	134.22331	73.4977	1086.09448	86.96007	55.23219	1044.21289	283.16879	30.19339	1074.93762	274.62088	1696.20471	998.00604	NaN	NaN	NaN	NaN	NaN	NaN	NaN	NaN	NaN	NaN	NaN	NaN	NaN	NaN	NaN	NaN	NaN	NaN	NaN	NaN	NaN
170	1.69	379.61313	1653.9248	930.80731	391.79617	1649.9176	1062.04773	247.21585	1598.30762	945.77167	261.47382	1599.66321	1074.85986	253.62505	1442.22815	1004.17249	223.41058	1112.4928	1015.5437	365.70407	1366.77649	1003.86932	406.58884	1192.32202	1005.05115	183.18529	1273.20313	1087.12134	305.59363	1394.14099	842.11505	266.89966	1194.75537	775.86823	237.782	1085.91431	769.69543	230.38608	936.37579	745.60034	275.14862	811.90643	777.81323	208.7758	818.5285	751.89459	232.24426	731.00256	745.98969	319.01736	1402.85547	1164.95081	286.54916	1208.71301	1262.3302	307.74414	1090.83069	1278.74976	373.89676	993.39844	1285.85083	492.5018	911.01471	1234.9823	449.81549	880.38611	1276.37439	520.68188	836.50671	1270.31128	409.22226	958.75208	918.05981	393.44452	961.36981	1135.25793	249.69504	976.7793	930.84015	244.11607	982.58398	1099.67212	415.07953	645.98853	847.34064	474.08728	495.04413	875.23376	473.05411	240.40291	881.13257	500.99854	69.39973	919.2821	470.75534	49.12138	970.67047	645.63727	58.2233	908.40271	317.87848	624.39172	1170.83826	302.61099	498.71902	1145.87109	196.07678	249.9319	1135.71729	134.62444	74.40008	1086.17859	87.8299	56.06475	1043.93616	283.39249	30.1062	1075.08325	284.96127	1694.64795	997.23944	NaN	NaN	NaN	NaN	NaN	NaN	NaN	NaN	NaN	NaN	NaN	NaN	NaN	NaN	NaN	NaN	NaN	NaN	NaN	NaN	NaN
171	1.7	389.8739	1652.34558	930.03046	402.28937	1648.52441	1061.41626	257.93866	1596.55774	945.08966	271.77975	1598.37354	1074.18396	264.47229	1440.39172	1003.31934	233.36697	1111.04895	1015.11121	376.02737	1365.23975	1003.354	416.70874	1190.79138	1004.76227	193.33299	1272.02173	1086.73438	315.52658	1392.65735	841.73102	274.5657	1193.94604	775.51672	244.1662	1085.49146	769.36084	235.06206	935.98688	745.33575	278.9989	811.17584	776.39197	212.30385	818.27411	751.61786	235.05917	730.66492	745.10052	329.34543	1401.52673	1164.39587	297.93671	1207.65552	1262.59924	319.53009	1089.88416	1278.87024	387.21869	993.69092	1285.48022	506.85849	913.49231	1234.19592	464.90216	882.06635	1275.70764	536.4632	839.45288	1269.28345	419.51791	957.54083	918.07178	403.22632	960.16742	1135.23828	259.96286	975.20593	930.32935	254.00401	981.10358	1099.17358	422.3132	643.45496	846.23267	481.67377	492.43488	875.13232	492.34439	238.19586	881.49463	529.22559	68.71349	919.8045	499.87695	47.36708	971.26318	675.04224	62.97964	909.87207	325.32114	623.55243	1170.95898	308.68546	497.89401	1146.26733	198.33379	250.41391	1135.9408	135.02835	75.39066	1086.20166	88.14471	57.63641	1043.79907	283.47235	30.00268	1075.14221	295.20572	1693.10718	996.40851	NaN	NaN	NaN	NaN	NaN	NaN	NaN	NaN	NaN	NaN	NaN	NaN	NaN	NaN	NaN	NaN	NaN	NaN	NaN	NaN	NaN
172	1.71	400.13232	1650.89441	929.17749	412.69226	1647.14893	1060.55823	268.47083	1594.90259	944.53644	282.3154	1596.70825	1073.52161	274.52444	1439.19727	1003.06049	243.51263	1109.58984	1014.59058	386.2749	1363.73755	1002.75446	426.84503	1189.34668	1004.38635	203.53313	1270.58569	1086.52625	325.50317	1391.15466	841.19562	282.48996	1193.07715	775.16431	250.80415	1085.03027	769.02826	240.07043	935.55402	744.86981	281.96918	809.75867	775.68427	216.31902	818.19727	751.19427	238.43951	730.35535	744.14996	339.724	1400.20789	1163.81909	308.8494	1206.27087	1261.99878	331.36795	1089.00037	1278.73083	400.16382	993.83295	1285.30225	520.88452	915.69879	1233.33728	479.58612	883.4986	1274.96387	551.77216	842.0769	1268.20557	429.9552	956.35065	917.93781	413.14923	958.91046	1135.19885	270.43991	973.59705	929.71838	263.98651	979.62927	1098.54749	430.00928	641.2785	845.08398	489.27505	489.77081	874.93726	510.22949	236.70329	881.88531	554.94946	68.82305	920.41083	527.11609	45.98676	972.36243	701.93811	67.79935	911.5401	333.03751	622.72656	1171.12268	314.70065	497.25299	1146.46497	201.07474	250.93637	1136.18225	135.60905	76.70808	1086.45605	88.11408	59.79351	1043.97681	283.93802	29.7713	1074.9248	305.55194	1691.59534	995.54645	NaN	NaN	NaN	NaN	NaN	NaN	NaN	NaN	NaN	NaN	NaN	NaN	NaN	NaN	NaN	NaN	NaN	NaN	NaN	NaN	NaN
